<svg width="270" height="270" viewBox="0 0 270 270" fill="none" xmlns="http://www.w3.org/2000/svg">
<rect width="270" height="270" fill="black"/>
<path d="M211.075 190.548L225.793 183.214L230.866 167.642L220.72 160.258H153.157L137.534 171.861H216.952L212.733 184.921H180.885L177.821 194.466H209.668L200.727 221.943L215.646 214.559L220.971 198.083L210.975 190.749L211.075 190.548Z" fill="#FCFC03"/>
<path d="M159.988 210.138L169.181 181.506L158.984 173.87L143.663 221.943H200.727L204.544 210.138H159.988Z" fill="#FCFC03"/>
<path fill-rule="evenodd" clip-rule="evenodd" d="M126.463 59.9283L113.28 67.9038V104.694L159.72 104.694C165.088 104.694 169.44 109.046 169.44 114.414C169.44 119.782 165.088 124.134 159.72 124.134L113.28 124.134V141.414H126.24V160.854H113.28V198.323L126.24 206.447V227.622C124.345 227.571 122.461 227.022 120.793 225.977L47.0638 179.759C43.9131 177.784 42 174.327 42 170.608V94.3952C42 90.6156 43.9758 87.1111 47.2096 85.1547L120.922 40.5595C124.392 38.4604 128.745 38.4818 132.194 40.615L204.281 85.2032C207.463 87.1714 209.4 90.6465 209.4 94.3882V140.52H189.96V99.2033L126.463 59.9283ZM93.8399 124.134V141.414H90.6C85.2318 141.414 80.88 145.766 80.88 151.134C80.88 156.502 85.2317 160.854 90.6 160.854H93.8399V186.137L61.44 165.827V99.2662L93.8399 79.6647V104.694H90.6C85.2318 104.694 80.88 109.046 80.88 114.414C80.88 119.782 85.2317 124.134 90.6 124.134H93.8399Z" fill="#FFFF51"/>
</svg>
