<svg width="830" height="210" viewBox="0 0 830 210" fill="none" xmlns="http://www.w3.org/2000/svg">
<path fill-rule="evenodd" clip-rule="evenodd" d="M101 44.7627L113.206 37.3781L172 73.7438V137.857L113.347 173.261L101 165.522V130.828L144 130.828C148.971 130.828 153 126.798 153 121.828C153 116.857 148.971 112.828 144 112.828L101 112.828V96.8277L144 96.8278C148.971 96.8278 153 92.7983 153 87.8278C153 82.8572 148.971 78.8277 144 78.8277L101 78.8277V44.7627ZM83 112.828V96.8277H80C75.0294 96.8277 71 92.7983 71 87.8277C71 82.8572 75.0294 78.8277 80 78.8277H83V55.6525L53 73.8021V135.433L83 154.238V130.828H80C75.0294 130.828 71 126.798 71 121.828C71 116.857 75.0294 112.828 80 112.828H83ZM118.513 19.4954C115.32 17.5202 111.289 17.5003 108.076 19.4439L39.8237 60.7358C36.8294 62.5473 35 65.7923 35 69.2918V139.86C35 143.303 36.7714 146.504 39.6887 148.332L107.957 191.127C111.154 193.13 115.206 193.165 118.436 191.215L185.168 150.934C188.167 149.123 190 145.876 190 142.373V69.2854C190 65.8209 188.207 62.6032 185.26 60.7807L118.513 19.4954Z" fill="#FFFF51"/>
<path d="M255.68 150.327H239.84V66.5668H293.72V80.6068H255.68V100.887H288.8V114.927H255.68V150.327ZM324.938 150.327H309.098V66.5668H362.978V80.6068H324.938V100.887H358.058V114.927H324.938V150.327ZM370.676 150.327L397.796 107.367L371.876 66.5668H390.356L408.116 96.3268H408.476L426.476 66.5668H443.756L417.596 107.367L444.956 150.327H426.476L407.276 118.167H406.916L387.956 150.327H370.676Z" fill="#FFFF51"/>
</svg>
