<svg width="517" height="270" viewBox="0 0 517 270" fill="none" xmlns="http://www.w3.org/2000/svg">
<path d="M277.68 180H261.84V96.24H315.72V110.28H277.68V130.56H310.8V144.6H277.68V180ZM346.938 180H331.098V96.24H384.978V110.28H346.938V130.56H380.058V144.6H346.938V180ZM392.676 180L419.796 137.04L393.876 96.24H412.356L430.116 126H430.476L448.476 96.24H465.756L439.596 137.04L466.956 180H448.476L429.276 147.84H428.916L409.956 180H392.676Z" fill="#FFFF51"/>
<path fill-rule="evenodd" clip-rule="evenodd" d="M123 74.7627L135.206 67.3781L194 103.744V167.857L135.347 203.261L123 195.522V160.828L166 160.828C170.971 160.828 175 156.798 175 151.828C175 146.857 170.971 142.828 166 142.828L123 142.828V126.828L166 126.828C170.971 126.828 175 122.798 175 117.828C175 112.857 170.971 108.828 166 108.828L123 108.828V74.7627ZM105 142.828V126.828H102C97.0294 126.828 93 122.798 93 117.828C93 112.857 97.0294 108.828 102 108.828H105V85.6525L75 103.802V165.433L105 184.238V160.828H102C97.0294 160.828 93 156.798 93 151.828C93 146.857 97.0294 142.828 102 142.828H105ZM140.513 49.4954C137.32 47.5202 133.289 47.5003 130.076 49.4439L61.8237 90.7358C58.8294 92.5473 57 95.7923 57 99.2918V169.86C57 173.303 58.7714 176.504 61.6887 178.332L129.957 221.127C133.154 223.13 137.206 223.165 140.436 221.215L207.168 180.934C210.167 179.123 212 175.876 212 172.373V99.2854C212 95.8209 210.207 92.6032 207.26 90.7807L140.513 49.4954Z" fill="#FFFF51"/>
</svg>
